<svg xmlns="http://www.w3.org/2000/svg" width="158.055" height="157.972" viewBox="0 0 158.055 157.972"><rect width="158.055" height="157.972" transform="translate(0 0)" fill="#fff"/><path d="M124.467,127.857V124.4h3.457v3.455Zm-3.458,0V124.4h3.458v3.455Zm-3.457,0V124.4h3.457v3.455Zm-3.457,0V124.4h3.457v3.455Zm-3.458,0V124.4h3.458v3.455Zm-3.457,0V124.4h3.457v3.455Zm-3.457,0V124.4h3.457v3.455Zm-3.457,0V124.4h3.457v3.455Zm-10.372,0V124.4H93.35v3.455Zm-3.457,0V124.4h3.457v3.455Zm-3.458,0V124.4h3.458v3.455Zm-20.744,0V124.4h3.457v3.455Zm-10.372,0V124.4h3.457v3.455Zm-10.372,0V124.4h3.457v3.455Zm-3.457,0V124.4h3.457v3.455Zm-6.915,0V124.4h3.458v3.455Zm-10.372,0V124.4H24.2v3.455Zm-3.458,0V124.4h3.458v3.455Zm-3.457,0V124.4h3.457v3.455Zm-3.457,0V124.4H13.83v3.455Zm-3.457,0V124.4h3.457v3.455Zm-3.458,0V124.4H6.915v3.455Zm-3.457,0V124.4H3.457v3.455ZM124.467,124.4v-3.456h3.457V124.4Zm-13.83,0v-3.456h3.458V124.4Zm-6.914,0v-3.456h3.457V124.4Zm-3.457,0v-3.456h3.457V124.4Zm-3.458,0v-3.456h3.458V124.4Zm-13.83,0v-3.456h3.458V124.4Zm-6.914,0v-3.456H79.52V124.4Zm-3.457,0v-3.456h3.457V124.4Zm-6.915,0v-3.456h3.457V124.4Zm-6.915,0v-3.456h3.458V124.4Zm-3.457,0v-3.456h3.457V124.4Zm-10.372,0v-3.456H48.4V124.4Zm-6.914,0v-3.456h3.457V124.4Zm-3.457,0v-3.456h3.457V124.4Zm-3.458,0v-3.456h3.458V124.4Zm-10.372,0v-3.456H24.2V124.4ZM0,124.4v-3.456H3.457V124.4Zm124.467-3.456V117.49h3.457v3.455Zm-10.372,0V117.49h3.457v3.455Zm-6.915,0V117.49h3.457v3.455Zm-6.914,0V117.49h3.457v3.455Zm-3.458,0V117.49h3.458v3.455Zm-6.914,0V117.49H93.35v3.455Zm-13.83,0V117.49H79.52v3.455Zm-3.457,0V117.49h3.457v3.455Zm-10.372,0V117.49h3.457v3.455Zm-3.458,0V117.49h3.458v3.455Zm-6.914,0V117.49h3.457v3.455Zm-10.372,0V117.49h3.457v3.455Zm-6.914,0V117.49h3.457v3.455Zm-6.915,0V117.49h3.457v3.455Zm-6.914,0V117.49H24.2v3.455Zm-6.915,0V117.49h3.457v3.455Zm-3.457,0V117.49H13.83v3.455Zm-3.457,0V117.49h3.457v3.455Zm-6.915,0V117.49H3.457v3.455Zm117.552-3.455v-3.455h3.457v3.455Zm-6.915,0v-3.455h3.458v3.455Zm-6.914,0v-3.455h3.457v3.455Zm-13.83,0v-3.455H93.35v3.455Zm-3.457,0v-3.455h3.457v3.455Zm-3.458,0v-3.455h3.458v3.455Zm-6.914,0v-3.455H79.52v3.455Zm-3.457,0v-3.455h3.457v3.455Zm-3.458,0v-3.455h3.458v3.455Zm-3.457,0v-3.455h3.457v3.455Zm-3.457,0v-3.455h3.457v3.455Zm-3.458,0v-3.455h3.458v3.455Zm-10.372,0v-3.455h3.457v3.455Zm-3.458,0v-3.455H48.4v3.455Zm-6.914,0v-3.455h3.457v3.455Zm-6.915,0v-3.455h3.458v3.455Zm-3.457,0v-3.455h3.457v3.455Zm-6.914,0v-3.455H24.2v3.455Zm-6.915,0v-3.455h3.457v3.455Zm-3.457,0v-3.455H13.83v3.455Zm-3.457,0v-3.455h3.457v3.455ZM0,117.49v-3.455H3.457v3.455Zm124.467-3.455v-3.456h3.457v3.456Zm-3.458,0v-3.456h3.458v3.456Zm-3.457,0v-3.456h3.457v3.456Zm-6.915,0v-3.456h3.458v3.456Zm-3.457,0v-3.456h3.457v3.456Zm-3.457,0v-3.456h3.457v3.456Zm-3.457,0v-3.456h3.457v3.456Zm-3.458,0v-3.456h3.458v3.456Zm-3.457,0v-3.456h3.457v3.456Zm-3.457,0v-3.456H93.35v3.456Zm-3.457,0v-3.456h3.457v3.456Zm-6.915,0v-3.456h3.457v3.456Zm-3.457,0v-3.456H79.52v3.456Zm-3.457,0v-3.456h3.457v3.456Zm-3.458,0v-3.456h3.458v3.456Zm-3.457,0v-3.456h3.457v3.456Zm-3.457,0v-3.456h3.457v3.456Zm-6.915,0v-3.456h3.457v3.456Zm-3.457,0v-3.456h3.457v3.456Zm-3.457,0v-3.456h3.457v3.456Zm-3.458,0v-3.456H48.4v3.456Zm-6.914,0v-3.456h3.457v3.456Zm-10.372,0v-3.456h3.457v3.456Zm-6.914,0v-3.456H24.2v3.456Zm-6.915,0v-3.456h3.457v3.456Zm-3.457,0v-3.456H13.83v3.456Zm-3.457,0v-3.456h3.457v3.456Zm-6.915,0v-3.456H3.457v3.456Zm124.467-3.456v-3.455h3.457v3.455Zm-3.458,0v-3.455h3.458v3.455Zm-10.372,0v-3.455h3.458v3.455Zm-13.83,0v-3.455h3.458v3.455Zm-3.457,0v-3.455h3.457v3.455Zm-17.287,0v-3.455H79.52v3.455Zm-17.288,0v-3.455h3.458v3.455Zm-3.457,0v-3.455h3.457v3.455Zm-6.914,0v-3.455h3.457v3.455Zm-3.458,0v-3.455H48.4v3.455Zm-10.372,0v-3.455h3.457v3.455Zm-13.83,0v-3.455H24.2v3.455ZM0,110.578v-3.455H3.457v3.455Zm124.467-3.455v-3.455h3.457v3.455Zm-3.458,0v-3.455h3.458v3.455Zm-6.914,0v-3.455h3.457v3.455Zm-3.458,0v-3.455h3.458v3.455Zm-6.914,0v-3.455h3.457v3.455Zm-6.915,0v-3.455h3.458v3.455Zm-13.83,0v-3.455h3.458v3.455Zm-24.2,0v-3.455h3.458v3.455Zm-10.372,0v-3.455h3.457v3.455Zm-27.659,0v-3.455H24.2v3.455Zm-3.458,0v-3.455h3.458v3.455Zm-3.457,0v-3.455h3.457v3.455Zm-3.457,0v-3.455H13.83v3.455Zm-3.457,0v-3.455h3.457v3.455Zm-3.458,0v-3.455H6.915v3.455Zm-3.457,0v-3.455H3.457v3.455Zm121.009-3.455v-3.455h3.458v3.455Zm-10.372,0v-3.455h3.458v3.455Zm-13.83,0v-3.455h3.458v3.455Zm-3.457,0v-3.455h3.457v3.455Zm-13.83,0v-3.455h3.457v3.455Zm-6.914,0v-3.455h3.457v3.455Zm-13.83,0v-3.455h3.458v3.455Zm-3.457,0v-3.455h3.457v3.455Zm-6.914,0v-3.455h3.457v3.455Zm-6.915,0v-3.455h3.457v3.455Zm-3.457,0v-3.455h3.457v3.455Zm-3.457,0v-3.455h3.457v3.455Zm-6.915,0v-3.455h3.457v3.455Zm96.808-3.455V96.756h3.457v3.456Zm-10.372,0V96.756h3.457v3.456Zm-3.458,0V96.756h3.458v3.456Zm-3.457,0V96.756h3.457v3.456Zm-3.457,0V96.756h3.457v3.456Zm-3.457,0V96.756h3.457v3.456Zm-3.458,0V96.756h3.458v3.456Zm-3.457,0V96.756h3.457v3.456Zm-3.457,0V96.756H93.35v3.456Zm-3.457,0V96.756h3.457v3.456Zm-3.458,0V96.756h3.458v3.456Zm-3.457,0V96.756h3.457v3.456Zm-3.457,0V96.756H79.52v3.456Zm-3.457,0V96.756h3.457v3.456Zm-10.372,0V96.756h3.457v3.456Zm-3.458,0V96.756h3.458v3.456Zm-10.372,0V96.756h3.457v3.456Zm-6.915,0V96.756h3.457v3.456Zm-3.457,0V96.756h3.457v3.456Zm-13.83,0V96.756h3.457v3.456Zm-3.457,0V96.756H24.2v3.456Zm-3.458,0V96.756h3.458v3.456ZM0,100.212V96.756H3.457v3.456Zm124.467-3.456V93.3h3.457v3.455Zm-10.372,0V93.3h3.457v3.455Zm-3.458,0V93.3h3.458v3.455Zm-3.457,0V93.3h3.457v3.455Zm-6.914,0V93.3h3.457v3.455Zm-6.915,0V93.3h3.457v3.455Zm-13.83,0V93.3h3.457v3.455Zm-13.83,0V93.3h3.457v3.455Zm-3.457,0V93.3h3.457v3.455Zm-6.915,0V93.3h3.457v3.455Zm-6.914,0V93.3h3.457v3.455Zm-3.458,0V93.3H48.4v3.455Zm-3.457,0V93.3h3.457v3.455Zm-6.914,0V93.3h3.457v3.455Zm-3.458,0V93.3h3.458v3.455Zm-3.457,0V93.3h3.457v3.455Zm-13.83,0V93.3h3.457v3.455Zm-3.457,0V93.3H13.83v3.455ZM0,96.756V93.3H3.457v3.455ZM124.467,93.3V89.845h3.457V93.3Zm-3.458,0V89.845h3.458V93.3Zm-3.457,0V89.845h3.457V93.3Zm-6.915,0V89.845h3.458V93.3Zm-6.914,0V89.845h3.457V93.3Zm-6.915,0V89.845h3.458V93.3Zm-3.457,0V89.845h3.457V93.3Zm-3.457,0V89.845H93.35V93.3Zm-6.915,0V89.845h3.458V93.3Zm-3.457,0V89.845h3.457V93.3Zm-17.287,0V89.845h3.457V93.3Zm-3.458,0V89.845h3.458V93.3Zm-3.457,0V89.845h3.457V93.3Zm-3.457,0V89.845h3.457V93.3Zm-13.83,0V89.845h3.457V93.3Zm-17.287,0V89.845H24.2V93.3Zm-3.458,0V89.845h3.458V93.3Zm-3.457,0V89.845h3.457V93.3ZM0,93.3V89.845H3.457V93.3Zm117.552-3.455V86.39h3.457v3.455Zm-6.915,0V86.39h3.458v3.455Zm-3.457,0V86.39h3.457v3.455Zm-3.457,0V86.39h3.457v3.455Zm-10.372,0V86.39h3.457v3.455Zm-17.287,0V86.39H79.52v3.455Zm-6.915,0V86.39h3.458v3.455Zm-6.914,0V86.39h3.457v3.455Zm-6.915,0V86.39h3.457v3.455Zm-3.457,0V86.39h3.457v3.455Zm-10.372,0V86.39h3.457v3.455Zm-3.457,0V86.39h3.457v3.455Zm-3.457,0V86.39h3.457v3.455Zm-3.458,0V86.39h3.458v3.455Zm-6.914,0V86.39h3.457v3.455Zm-10.372,0V86.39h3.457v3.455Zm-3.457,0V86.39H13.83v3.455Zm-3.457,0V86.39h3.457v3.455ZM0,89.845V86.39H3.457v3.455ZM124.467,86.39V82.934h3.457V86.39Zm-3.458,0V82.934h3.458V86.39Zm-3.457,0V82.934h3.457V86.39Zm-3.457,0V82.934h3.457V86.39Zm-13.83,0V82.934h3.457V86.39Zm-3.458,0V82.934h3.458V86.39Zm-6.914,0V82.934H93.35V86.39Zm-6.915,0V82.934h3.458V86.39Zm-20.744,0V82.934h3.457V86.39Zm-6.915,0V82.934h3.457V86.39Zm-3.457,0V82.934h3.457V86.39Zm-6.915,0V82.934H48.4V86.39Zm-3.457,0V82.934h3.457V86.39Zm-6.914,0V82.934h3.457V86.39Zm-6.915,0V82.934h3.457V86.39Zm-6.914,0V82.934H24.2V86.39Zm-3.458,0V82.934h3.458V86.39Zm-10.372,0V82.934h3.457V86.39Zm117.552-3.456V79.478h3.457v3.455Zm-3.458,0V79.478h3.458v3.455Zm-6.914,0V79.478h3.457v3.455Zm-6.915,0V79.478h3.457v3.455Zm-20.744,0V79.478h3.457v3.455Zm-6.915,0V79.478h3.457v3.455Zm-3.457,0V79.478H79.52v3.455Zm-6.915,0V79.478h3.458v3.455Zm-3.457,0V79.478h3.457v3.455Zm-6.915,0V79.478h3.458v3.455Zm-10.372,0V79.478h3.457v3.455Zm-3.458,0V79.478H48.4v3.455Zm-6.914,0V79.478h3.457v3.455Zm-3.457,0V79.478h3.457v3.455Zm-10.372,0V79.478h3.457v3.455Zm-17.287,0V79.478h3.457v3.455Zm-3.458,0V79.478H6.915v3.455ZM0,82.934V79.478H3.457v3.455Zm124.467-3.455V76.023h3.457v3.455Zm-3.458,0V76.023h3.458v3.455Zm-20.744,0V76.023h3.457v3.455Zm-6.915,0V76.023h3.457v3.455Zm-3.457,0V76.023H93.35v3.455Zm-3.457,0V76.023h3.457v3.455Zm-3.458,0V76.023h3.458v3.455Zm-20.744,0V76.023h3.457v3.455Zm-6.915,0V76.023h3.457v3.455Zm-10.372,0V76.023H48.4v3.455Zm-10.372,0V76.023h3.457v3.455Zm-3.458,0V76.023h3.458v3.455Zm-10.372,0V76.023H24.2v3.455Zm-3.458,0V76.023h3.458v3.455Zm-6.914,0V76.023H13.83v3.455Zm-3.457,0V76.023h3.457v3.455ZM0,79.478V76.023H3.457v3.455Zm121.009-3.455V72.568h3.458v3.455Zm-13.83,0V72.568h3.457v3.455Zm-20.744,0V72.568h3.457v3.455Zm-6.915,0V72.568h3.457v3.455Zm-6.914,0V72.568h3.457v3.455Zm-3.458,0V72.568h3.458v3.455Zm-3.457,0V72.568h3.457v3.455Zm-10.372,0V72.568h3.457v3.455Zm-3.457,0V72.568h3.457v3.455Zm-10.372,0V72.568h3.457v3.455Zm-3.457,0V72.568h3.457v3.455Zm-20.745,0V72.568h3.458v3.455Zm-3.457,0V72.568h3.457v3.455Zm-6.914,0V72.568h3.457v3.455Zm-3.458,0V72.568H6.915v3.455Zm121.01-3.455V69.111h3.457v3.456Zm-6.915,0V69.111h3.457v3.456Zm-3.457,0V69.111h3.457v3.456Zm-3.458,0V69.111h3.458v3.456Zm-3.457,0V69.111h3.457v3.456Zm-3.457,0V69.111h3.457v3.456Zm-3.457,0V69.111h3.457v3.456Zm-6.915,0V69.111h3.457v3.456Zm-3.457,0V69.111H93.35v3.456Zm-3.457,0V69.111h3.457v3.456Zm-13.83,0V69.111h3.457v3.456Zm-13.83,0V69.111h3.458v3.456Zm-13.83,0V69.111H48.4v3.456Zm-3.457,0V69.111h3.457v3.456Zm-6.914,0V69.111h3.457v3.456Zm-3.458,0V69.111h3.458v3.456Zm-3.457,0V69.111h3.457v3.456Zm-3.457,0V69.111h3.457v3.456Zm-3.457,0V69.111H24.2v3.456Zm-3.458,0V69.111h3.458v3.456Zm-3.457,0V69.111h3.457v3.456Zm-6.914,0V69.111h3.457v3.456Zm-3.458,0V69.111H6.915v3.456Zm117.552-3.456V65.656h3.458v3.455Zm-10.372,0V65.656h3.458v3.455Zm-3.457,0V65.656h3.457v3.455Zm-6.914,0V65.656h3.457v3.455Zm-10.372,0V65.656H93.35v3.455Zm-10.372,0V65.656h3.457v3.455Zm-10.372,0V65.656h3.458v3.455Zm-3.457,0V65.656h3.457v3.455Zm-6.915,0V65.656h3.458v3.455Zm-3.457,0V65.656h3.457v3.455Zm-6.914,0V65.656h3.457v3.455Zm-10.372,0V65.656h3.457v3.455Zm-6.915,0V65.656h3.458v3.455Zm-3.457,0V65.656h3.457v3.455Zm-10.372,0V65.656h3.458v3.455Zm-3.457,0V65.656h3.457v3.455Zm-3.457,0V65.656H13.83v3.455Zm-3.457,0V65.656h3.457v3.455ZM0,69.111V65.656H3.457v3.455Zm124.467-3.455V62.2h3.457v3.455Zm-3.458,0V62.2h3.458v3.455Zm-10.372,0V62.2h3.458v3.455Zm-3.457,0V62.2h3.457v3.455Zm-6.914,0V62.2h3.457v3.455Zm-6.915,0V62.2h3.457v3.455Zm-10.372,0V62.2h3.458v3.455Zm-20.744,0V62.2h3.457v3.455Zm-3.458,0V62.2h3.458v3.455Zm-3.457,0V62.2h3.457v3.455Zm-3.457,0V62.2h3.457v3.455Zm-6.915,0V62.2H48.4v3.455Zm-13.83,0V62.2h3.458v3.455Zm-10.372,0V62.2H24.2v3.455Zm-3.458,0V62.2h3.458v3.455Zm-13.83,0V62.2H6.915v3.455ZM107.18,62.2V58.745h3.457V62.2Zm-17.287,0V58.745H93.35V62.2Zm-6.915,0V58.745h3.458V62.2Zm-3.457,0V58.745h3.457V62.2Zm-10.372,0V58.745h3.458V62.2Zm-3.457,0V58.745h3.457V62.2Zm-3.457,0V58.745h3.457V62.2Zm-17.288,0V58.745H48.4V62.2Zm-6.914,0V58.745h3.457V62.2Zm-3.457,0V58.745h3.457V62.2Zm-3.458,0V58.745h3.458V62.2Zm-3.457,0V58.745h3.457V62.2Zm-13.83,0V58.745h3.457V62.2Zm-3.457,0V58.745H13.83V62.2Zm-3.457,0V58.745h3.457V62.2Zm117.552-3.456V55.289h3.457v3.455Zm-3.458,0V55.289h3.458v3.455Zm-3.457,0V55.289h3.457v3.455Zm-6.915,0V55.289h3.458v3.455Zm-3.457,0V55.289h3.457v3.455Zm-3.457,0V55.289h3.457v3.455Zm-3.457,0V55.289h3.457v3.455Zm-10.372,0V55.289H93.35v3.455Zm-3.457,0V55.289h3.457v3.455Zm-3.458,0V55.289h3.458v3.455Zm-3.457,0V55.289h3.457v3.455Zm-3.457,0V55.289H79.52v3.455Zm-6.915,0V55.289h3.458v3.455Zm-6.914,0V55.289h3.457v3.455Zm-3.458,0V55.289h3.458v3.455Zm-6.914,0V55.289h3.457v3.455Zm-3.457,0V55.289h3.457v3.455Zm-3.458,0V55.289H48.4v3.455Zm-10.372,0V55.289h3.457v3.455Zm-10.372,0V55.289h3.457v3.455Zm-3.457,0V55.289H24.2v3.455Zm-3.458,0V55.289h3.458v3.455Zm-6.914,0V55.289H13.83v3.455Zm-3.457,0V55.289h3.457v3.455ZM0,58.745V55.289H3.457v3.455Zm103.722-3.455V51.834h3.457v3.455Zm-6.915,0V51.834h3.458v3.455Zm-6.914,0V51.834H93.35v3.455Zm-6.915,0V51.834h3.458v3.455Zm-6.914,0V51.834H79.52v3.455Zm-13.83,0V51.834h3.457v3.455Zm-3.458,0V51.834h3.458v3.455Zm-3.457,0V51.834h3.457v3.455Zm-6.914,0V51.834h3.457v3.455Zm-3.458,0V51.834H48.4v3.455Zm-10.372,0V51.834h3.457v3.455Zm-3.458,0V51.834h3.458v3.455Zm-17.287,0V51.834h3.457v3.455Zm-3.457,0V51.834H13.83v3.455Zm-3.457,0V51.834h3.457v3.455Zm117.552-3.455V48.378h3.457v3.455Zm-3.458,0V48.378h3.458v3.455Zm-6.914,0V48.378h3.457v3.455Zm-3.458,0V48.378h3.458v3.455Zm-3.457,0V48.378h3.457v3.455Zm-3.457,0V48.378h3.457v3.455Zm-6.915,0V48.378h3.458v3.455Zm-3.457,0V48.378h3.457v3.455Zm-10.372,0V48.378h3.458v3.455Zm-3.457,0V48.378h3.457v3.455Zm-31.116,0V48.378h3.457v3.455Zm-6.915,0V48.378h3.457v3.455Zm-13.83,0V48.378h3.457v3.455Zm-3.457,0V48.378h3.457v3.455Zm-3.457,0V48.378H24.2v3.455Zm-3.458,0V48.378h3.458v3.455Zm-3.457,0V48.378h3.457v3.455Zm-3.457,0V48.378H13.83v3.455Zm-6.915,0V48.378H6.915v3.455Zm114.095-3.455V44.922h3.457v3.456Zm-3.457,0V44.922h3.457v3.456Zm-6.915,0V44.922h3.457v3.456Zm-6.914,0V44.922h3.457v3.456Zm-3.458,0V44.922h3.458v3.456Zm-13.83,0V44.922h3.458v3.456Zm-6.914,0V44.922H79.52v3.456Zm-6.915,0V44.922h3.458v3.456Zm-3.457,0V44.922h3.457v3.456Zm-3.457,0V44.922h3.457v3.456Zm-3.458,0V44.922h3.458v3.456Zm-3.457,0V44.922h3.457v3.456Zm-10.372,0V44.922H48.4v3.456Zm-10.372,0V44.922h3.457v3.456Zm-3.458,0V44.922h3.458v3.456Zm-20.744,0V44.922H13.83v3.456Zm-6.915,0V44.922H6.915v3.456Zm117.552-3.456V41.467h3.458v3.455Zm-3.457,0V41.467h3.457v3.455Zm-3.457,0V41.467h3.457v3.455Zm-3.458,0V41.467h3.458v3.455Zm-6.914,0V41.467h3.457v3.455Zm-3.457,0V41.467h3.457v3.455Zm-3.458,0V41.467h3.458v3.455Zm-6.914,0V41.467H93.35v3.455Zm-3.457,0V41.467h3.457v3.455Zm-6.915,0V41.467h3.457v3.455Zm-17.287,0V41.467h3.457v3.455Zm-10.372,0V41.467h3.457v3.455Zm-13.83,0V41.467h3.457v3.455Zm-10.372,0V41.467h3.457v3.455Zm-3.457,0V41.467h3.457v3.455Zm-3.457,0V41.467H24.2v3.455Zm-3.458,0V41.467h3.458v3.455Zm-3.457,0V41.467h3.457v3.455Zm-3.457,0V41.467H13.83v3.455Zm-6.915,0V41.467H6.915v3.455ZM0,44.922V41.467H3.457v3.455Zm124.467-3.455V38.011h3.457v3.455Zm-10.372,0V38.011h3.457v3.455Zm-10.372,0V38.011h3.457v3.455Zm-6.915,0V38.011h3.458v3.455Zm-6.914,0V38.011H93.35v3.455Zm-6.915,0V38.011h3.458v3.455Zm-3.457,0V38.011h3.457v3.455Zm-3.457,0V38.011H79.52v3.455Zm-3.457,0V38.011h3.457v3.455Zm-6.915,0V38.011h3.457v3.455Zm-3.457,0V38.011h3.457v3.455Zm-6.915,0V38.011h3.457v3.455Zm-3.457,0V38.011h3.457v3.455Zm-3.457,0V38.011h3.457v3.455Zm-3.458,0V38.011H48.4v3.455Zm-17.287,0V38.011h3.457v3.455Zm-10.372,0V38.011h3.458v3.455Zm107.18-3.455V34.556h3.457v3.455Zm-3.458,0V34.556h3.458v3.455Zm-6.914,0V34.556h3.457v3.455Zm-6.915,0V34.556h3.457v3.455Zm-3.457,0V34.556h3.457v3.455Zm-13.83,0V34.556H93.35v3.455Zm-3.457,0V34.556h3.457v3.455Zm-3.458,0V34.556h3.458v3.455Zm-3.457,0V34.556h3.457v3.455Zm-6.914,0V34.556h3.457v3.455Zm-10.372,0V34.556h3.457v3.455Zm-10.372,0V34.556h3.457v3.455Zm-3.457,0V34.556h3.457v3.455Zm-6.915,0V34.556h3.457v3.455Zm-3.457,0V34.556h3.457v3.455Zm-6.915,0V34.556h3.458v3.455Zm-10.372,0V34.556H24.2v3.455Zm-3.458,0V34.556h3.458v3.455Zm-3.457,0V34.556h3.457v3.455Zm-3.457,0V34.556H13.83v3.455Zm-3.457,0V34.556h3.457v3.455Zm-3.458,0V34.556H6.915v3.455Zm100.265-3.455V31.1h3.457v3.456Zm-3.457,0V31.1h3.457v3.456Zm-3.458,0V31.1h3.458v3.456Zm-3.457,0V31.1h3.457v3.456Zm-3.457,0V31.1H93.35v3.456Zm-3.457,0V31.1h3.457v3.456Zm-13.83,0V31.1h3.457v3.456Zm-6.915,0V31.1h3.457v3.456Zm-3.457,0V31.1h3.457v3.456Zm-3.458,0V31.1h3.458v3.456Zm-6.914,0V31.1h3.457v3.456Zm-13.83,0V31.1h3.457v3.456Zm-13.83,0V31.1h3.457v3.456Zm-6.915,0V31.1h3.458v3.456ZM0,34.556V31.1H3.457v3.456ZM124.467,31.1V27.645h3.457V31.1Zm-3.458,0V27.645h3.458V31.1Zm-3.457,0V27.645h3.457V31.1Zm-10.372,0V27.645h3.457V31.1Zm-3.457,0V27.645h3.457V31.1Zm-3.457,0V27.645h3.457V31.1Zm-17.288,0V27.645h3.458V31.1Zm-10.372,0V27.645h3.457V31.1Zm-6.915,0V27.645h3.457V31.1Zm-3.457,0V27.645h3.457V31.1Zm-10.372,0V27.645h3.457V31.1Zm-3.457,0V27.645h3.457V31.1Zm-3.458,0V27.645H48.4V31.1Zm-6.914,0V27.645h3.457V31.1Zm-3.457,0V27.645h3.457V31.1Zm-3.458,0V27.645h3.458V31.1Zm-3.457,0V27.645h3.457V31.1Zm-6.914,0V27.645H24.2V31.1Zm-6.915,0V27.645h3.457V31.1Zm-3.457,0V27.645H13.83V31.1Zm-3.457,0V27.645h3.457V31.1Zm89.892-3.455V24.189h3.458v3.455Zm-6.914,0V24.189H93.35v3.455Zm-6.915,0V24.189h3.458v3.455Zm-3.457,0V24.189h3.457v3.455Zm-3.457,0V24.189H79.52v3.455Zm-3.457,0V24.189h3.457v3.455Zm-3.458,0V24.189h3.458v3.455Zm-6.914,0V24.189h3.457v3.455Zm-3.458,0V24.189h3.458v3.455Zm-3.457,0V24.189h3.457v3.455Zm-3.457,0V24.189h3.457v3.455Zm-10.372,0V24.189h3.457v3.455Zm-3.457,0V24.189h3.457v3.455Zm-10.372,0V24.189h3.457v3.455Zm96.808-3.455V20.734h3.457v3.455Zm-3.458,0V20.734h3.458v3.455Zm-3.457,0V20.734h3.457v3.455Zm-3.457,0V20.734h3.457v3.455Zm-3.458,0V20.734h3.458v3.455Zm-3.457,0V20.734h3.457v3.455Zm-3.457,0V20.734h3.457v3.455Zm-6.915,0V20.734h3.458v3.455Zm-6.914,0V20.734H93.35v3.455Zm-6.915,0V20.734h3.458v3.455Zm-6.914,0V20.734H79.52v3.455Zm-6.915,0V20.734h3.458v3.455Zm-6.914,0V20.734h3.457v3.455Zm-6.915,0V20.734h3.457v3.455Zm-6.914,0V20.734h3.457v3.455Zm-6.915,0V20.734h3.457v3.455Zm-6.914,0V20.734h3.457v3.455Zm-6.915,0V20.734h3.457v3.455Zm-6.914,0V20.734H24.2v3.455Zm-3.458,0V20.734h3.458v3.455Zm-3.457,0V20.734h3.457v3.455Zm-3.457,0V20.734H13.83v3.455Zm-3.457,0V20.734h3.457v3.455Zm-3.458,0V20.734H6.915v3.455ZM0,24.189V20.734H3.457v3.455Zm124.467-3.455V17.278h3.457v3.456Zm-20.745,0V17.278h3.457v3.456Zm-6.915,0V17.278h3.458v3.456Zm-3.457,0V17.278h3.457v3.456Zm-20.744,0V17.278h3.457v3.456Zm-10.372,0V17.278h3.457v3.456Zm-3.458,0V17.278h3.458v3.456Zm-3.457,0V17.278h3.457v3.456Zm-3.457,0V17.278h3.457v3.456Zm-3.457,0V17.278h3.457v3.456Zm-3.458,0V17.278H48.4v3.456Zm-6.914,0V17.278h3.457v3.456Zm-3.457,0V17.278h3.457v3.456Zm-6.915,0V17.278h3.457v3.456Zm-6.914,0V17.278H24.2v3.456ZM0,20.734V17.278H3.457v3.456Zm124.467-3.456V13.822h3.457v3.455Zm-6.915,0V13.822h3.457v3.455Zm-3.457,0V13.822h3.457v3.455Zm-3.458,0V13.822h3.458v3.455Zm-6.914,0V13.822h3.457v3.455Zm-20.745,0V13.822h3.458v3.455Zm-3.457,0V13.822h3.457v3.455Zm-6.914,0V13.822h3.457v3.455Zm-10.372,0V13.822h3.457v3.455Zm-3.458,0V13.822h3.458v3.455Zm-3.457,0V13.822h3.457v3.455Zm-6.914,0V13.822h3.457v3.455Zm-3.458,0V13.822H48.4v3.455Zm-3.457,0V13.822h3.457v3.455Zm-6.914,0V13.822h3.457v3.455Zm-13.83,0V13.822H24.2v3.455Zm-6.915,0V13.822h3.457v3.455Zm-3.457,0V13.822H13.83v3.455Zm-3.457,0V13.822h3.457v3.455ZM0,17.278V13.822H3.457v3.455Zm124.467-3.455V10.367h3.457v3.455Zm-6.915,0V10.367h3.457v3.455Zm-3.457,0V10.367h3.457v3.455Zm-3.458,0V10.367h3.458v3.455Zm-6.914,0V10.367h3.457v3.455Zm-13.83,0V10.367H93.35v3.455Zm-3.457,0V10.367h3.457v3.455Zm-3.458,0V10.367h3.458v3.455Zm-10.372,0V10.367h3.457v3.455Zm-3.458,0V10.367h3.458v3.455Zm-10.372,0V10.367h3.458v3.455Zm-3.457,0V10.367h3.457v3.455Zm-3.457,0V10.367h3.457v3.455Zm-6.915,0V10.367H48.4v3.455Zm-3.457,0V10.367h3.457v3.455Zm-3.457,0V10.367h3.457v3.455Zm-17.287,0V10.367H24.2v3.455Zm-6.915,0V10.367h3.457v3.455Zm-3.457,0V10.367H13.83v3.455Zm-3.457,0V10.367h3.457v3.455ZM0,13.822V10.367H3.457v3.455Zm124.467-3.455V6.912h3.457v3.455Zm-6.915,0V6.912h3.457v3.455Zm-3.457,0V6.912h3.457v3.455Zm-3.458,0V6.912h3.458v3.455Zm-6.914,0V6.912h3.457v3.455Zm-6.915,0V6.912h3.458v3.455Zm-6.914,0V6.912H93.35v3.455Zm-13.83,0V6.912H79.52v3.455Zm-3.457,0V6.912h3.457v3.455Zm-3.458,0V6.912h3.458v3.455Zm-3.457,0V6.912h3.457v3.455Zm-3.457,0V6.912h3.457v3.455Zm-3.458,0V6.912h3.458v3.455Zm-17.287,0V6.912h3.457v3.455Zm-13.83,0V6.912h3.457v3.455Zm-6.914,0V6.912H24.2v3.455Zm-6.915,0V6.912h3.457v3.455Zm-3.457,0V6.912H13.83v3.455Zm-3.457,0V6.912h3.457v3.455ZM0,10.367V6.912H3.457v3.455ZM124.467,6.912V3.455h3.457V6.912Zm-20.745,0V3.455h3.457V6.912Zm-10.372,0V3.455h3.457V6.912Zm-3.457,0V3.455H93.35V6.912Zm-3.457,0V3.455h3.457V6.912Zm-3.458,0V3.455h3.458V6.912Zm-3.457,0V3.455h3.457V6.912Zm-13.83,0V3.455h3.457V6.912Zm-3.457,0V3.455h3.457V6.912Zm-3.458,0V3.455h3.458V6.912Zm-6.914,0V3.455h3.457V6.912Zm-10.372,0V3.455h3.457V6.912Zm-6.914,0V3.455h3.457V6.912Zm-6.915,0V3.455h3.457V6.912Zm-6.914,0V3.455H24.2V6.912ZM0,6.912V3.455H3.457V6.912ZM124.467,3.455V0h3.457V3.455Zm-3.458,0V0h3.458V3.455Zm-3.457,0V0h3.457V3.455Zm-3.457,0V0h3.457V3.455Zm-3.458,0V0h3.458V3.455Zm-3.457,0V0h3.457V3.455Zm-3.457,0V0h3.457V3.455Zm-6.915,0V0h3.458V3.455Zm-13.83,0V0h3.458V3.455Zm-3.457,0V0h3.457V3.455Zm-6.914,0V0h3.457V3.455Zm-6.915,0V0h3.457V3.455Zm-10.372,0V0h3.457V3.455Zm-17.287,0V0h3.457V3.455Zm-10.372,0V0h3.457V3.455Zm-6.914,0V0H24.2V3.455Zm-3.458,0V0h3.458V3.455Zm-3.457,0V0h3.457V3.455Zm-3.457,0V0H13.83V3.455Zm-3.457,0V0h3.457V3.455Zm-3.458,0V0H6.915V3.455ZM0,3.455V0H3.457V3.455Z" transform="translate(15.195 15.129)"/></svg>